<svg width="20" height="25" viewBox="0 0 20 25" fill="none" xmlns="http://www.w3.org/2000/svg">
<path d="M17 9.0053V7.5813C17 3.71531 13.866 0.581299 10 0.581299C6.13401 0.581299 3 3.71531 3 7.5813L3 9.0053C1.18005 9.79959 0.00261164 11.5956 0 13.5813V19.5813C0.00330687 22.3414 2.23995 24.578 5 24.5813H15C17.7601 24.578 19.9967 22.3414 20 19.5813L20 13.5813C19.9974 11.5956 18.8199 9.79959 17 9.0053ZM5 7.5813C5 4.81987 7.23858 2.5813 10 2.5813C12.7614 2.5813 15 4.81987 15 7.5813V8.5813H5V7.5813ZM18 19.5813C18 21.2382 16.6569 22.5813 15 22.5813H5C3.34315 22.5813 2 21.2382 2 19.5813L2 13.5813C2 11.9244 3.34315 10.5813 5 10.5813H15C16.6569 10.5813 18 11.9244 18 13.5813V19.5813Z" fill="white"/>
<path d="M9.99998 12.4946C9.03612 12.4946 8.25476 13.276 8.25476 14.2398V17.7303C8.25476 18.6941 9.03612 19.4755 9.99998 19.4755C10.9638 19.4755 11.7452 18.6941 11.7452 17.7303V14.2398C11.7452 13.276 10.9638 12.4946 9.99998 12.4946Z" fill="white"/>
</svg>
