<svg width="20" height="20" viewBox="0 0 20 20" fill="none" xmlns="http://www.w3.org/2000/svg">
<path d="M15.8333 0H4.16667C1.86662 0.00275453 0.00275493 1.86662 0 4.16667V15.8333C0.00275572 18.1334 1.86662 19.9972 4.16667 20H15.8333C18.1334 19.9972 19.9972 18.1334 20 15.8333V4.16667C19.9972 1.86662 18.1334 0.00275532 15.8333 0ZM5.83333 18.3333V17.5C5.83333 15.1988 7.69881 13.3333 10 13.3333C12.3012 13.3333 14.1667 15.1988 14.1667 17.5V18.3333H5.83333ZM18.3333 15.8333C18.3333 17.214 17.214 18.3333 15.8333 18.3333V17.5C15.8333 14.2783 13.2217 11.6667 10 11.6667C6.77834 11.6667 4.16667 14.2783 4.16667 17.5L4.16667 18.3333C2.78595 18.3333 1.66667 17.214 1.66667 15.8333V4.16667C1.66667 2.78595 2.78596 1.66667 4.16667 1.66667H15.8333C17.214 1.66667 18.3333 2.78595 18.3333 4.16667V15.8333Z" fill="white"/>
<path d="M10.0001 3.72974C8.0276 3.72974 6.42859 5.32875 6.42859 7.30122C6.42859 9.2737 8.0276 10.8727 10.0001 10.8727C11.9726 10.8727 13.5716 9.2737 13.5716 7.30122C13.5716 5.32875 11.9726 3.72974 10.0001 3.72974ZM10.0001 9.08697C9.01384 9.08697 8.21433 8.28746 8.21433 7.30122C8.21433 6.31498 9.01384 5.51548 10.0001 5.51548C10.9863 5.51548 11.7858 6.31498 11.7858 7.30122C11.7858 8.28746 10.9863 9.08697 10.0001 9.08697Z" fill="white"/>
</svg>
